<?xml version="1.0" encoding="UTF-8" standalone="no"?>
<svg
   xmlns:dc="http://purl.org/dc/elements/1.1/"
   xmlns:cc="http://creativecommons.org/ns#"
   xmlns:rdf="http://www.w3.org/1999/02/22-rdf-syntax-ns#"
   xmlns:svg="http://www.w3.org/2000/svg"
   xmlns="http://www.w3.org/2000/svg"
   id="svg8"
   version="1.1"
   viewBox="0 0 26.322999 47.625001"
   height="180"
   width="99.488503">
  <defs
     id="defs2" />
  <metadata
     id="metadata5">
    <rdf:RDF>
      <cc:Work
         rdf:about="">
        <dc:format>image/svg+xml</dc:format>
        <dc:type
           rdf:resource="http://purl.org/dc/dcmitype/StillImage" />
        <dc:title></dc:title>
      </cc:Work>
    </rdf:RDF>
  </metadata>
  <g
     transform="translate(0,-249.375)"
     id="layer1">
    <g
       transform="matrix(0.08673928,0,0,0.09301734,0,249.37512)"
       id="g926">
      <path
         d="m 295.97266,231.66797 c 4.14062,0 7.5,-3.35938 7.5,-7.5 v -55.33985 c 0,-14.78125 -12.02735,-26.80468 -26.8086,-26.80468 h -36.32031 c -7.71484,-11.5 -17.66797,-21.55078 -29.44141,-29.41797 8.30469,-12.00781 12.6836,-26.023439 12.6836,-40.753908 0,-14.378906 -4.25,-28.273437 -12.29297,-40.175781 -2.32031,-3.429687 -6.98438,-4.332031 -10.41406,-2.015625 -3.4336,2.320313 -4.33594,6.984375 -2.01563,10.414063 6.35938,9.414062 9.72266,20.402343 9.72266,31.777343 0,12.546876 -4.00782,24.441407 -11.58985,34.394528 -12.51562,16.42579 -20.95703,35.19922 -24.70312,54.73828 h -3.17188 v -55.16796 c 0,-4.14453 -3.35937,-7.500004 -7.5,-7.500004 -4.14062,0 -7.5,3.355474 -7.5,7.500004 v 4.625 c 0,0.59375 -0.92968,1.45703 -2.38672,1.45703 -1.45703,0 -2.38671,-0.86328 -2.38671,-1.45703 v -4.625 c 0,-4.14453 -3.35938,-7.500004 -7.5,-7.500004 -4.14454,0 -7.5,3.355474 -7.5,7.500004 v 55.16796 h -3.14844 C 127.48828,141.27344 119.12109,122.60938 106.71875,106.56641 98.613281,96.082031 94.421875,82.96875 94.921875,69.652344 96.023438,40.414062 119.76562,16.4375 148.97656,15.0625 c 9.77735,-0.464844 19.51172,1.585938 28.16016,5.914062 3.70312,1.855469 8.21094,0.355469 10.0625,-3.351562 1.85547,-3.703125 0.35547,-8.210938 -3.35156,-10.0625 C 172.90625,2.085938 160.60156,-0.5 148.27344,0.078125 111.34375,1.816406 81.324219,32.128906 79.9375,69.089844 79.351562,84.609375 83.828125,99.910156 92.574219,112.60156 80.796875,120.47266 70.84375,130.51953 63.125,142.02344 H 26.804688 C 12.027344,142.02344 0,154.04687 0,168.82812 v 110.73047 c 0,14.78125 12.023438,26.80469 26.804688,26.80469 h 18.144531 v 13.62109 h -7.21875 c -12.289063,0 -22.289063,10 -22.289063,22.28907 0,12.28906 10,22.28906 22.289063,22.28906 h 0.0039 c 2.339844,15.125 7.59375,29.41797 15.667969,42.53906 1.417968,2.30078 3.875,3.57031 6.394531,3.57031 1.339844,0 2.699219,-0.35937 3.921875,-1.11328 3.527344,-2.17187 4.628906,-6.78906 2.457031,-10.32031 C 59.570312,388.5 55.132812,376.85937 52.9375,364.5625 h 197.58203 c -8.48047,47.48828 -49.83203,82.53906 -98.78125,82.53906 -24.14062,0 -47.47266,-8.6914 -65.695311,-24.47656 -3.128907,-2.71094 -7.867188,-2.375 -10.578125,0.75781 -2.710938,3.13281 -2.375,7.86719 0.757812,10.57813 11.09375,9.60937 23.835934,16.93359 37.488284,21.69531 l -4.19922,20.55078 c -8.02735,1.8711 -14.031251,9.06641 -14.031251,17.65625 0,10 8.136721,18.13672 18.136721,18.13672 h 76.23828 c 10,0 18.13672,-8.13672 18.13672,-18.13672 0,-8.58984 -6.00391,-15.78516 -14.03125,-17.65625 l -4.19141,-20.51562 c 39.40625,-13.71485 69.32813,-48.19532 75.97656,-91.12891 12.28907,0 22.28516,-10 22.28516,-22.28906 0,-12.28907 -10,-22.28516 -22.28906,-22.28516 h -7.21875 v -13.625 h 18.14062 c 14.78125,0 26.8086,-12.02344 26.8086,-26.80469 v -22.73047 c 0,-4.14062 -3.35938,-7.5 -7.5,-7.5 -4.14453,0 -7.5,3.35938 -7.5,7.5 v 22.73047 c 0,6.51172 -5.29688,11.80469 -11.8086,11.80469 h -18.14062 v -89.89844 c 0,-0.76172 -0.0234,-1.52343 -0.0391,-2.28515 h 29.98828 v 24.98828 c 0,4.14062 3.35547,7.5 7.5,7.5 z M 189.85156,497 h -76.23437 c -1.73047,0 -3.13672,-1.40625 -3.13672,-3.14063 0,-1.73046 1.40625,-3.13671 3.13672,-3.13671 h 76.23437 c 1.73047,0 3.14063,1.40625 3.14063,3.13671 0,1.73047 -1.41016,3.14063 -3.14063,3.14063 z m -11.30078,-21.27734 h -53.63281 l 3.28125,-16.05079 c 7.6914,1.60157 15.57422,2.42969 23.53515,2.42969 8.05469,0 15.92969,-0.83203 23.53907,-2.40625 z M 216.53125,319.98437 H 86.9375 V 205.08984 c 0,-20.85547 10.128906,-40.39453 26.82422,-52.5039 1.07422,3.60937 1.96875,7.27734 2.67187,10.98437 -4.83984,3.01563 -8.07812,8.3711 -8.07812,14.48047 v 39.23047 c 0,9.41016 7.65625,17.06641 17.0664,17.06641 h 52.625 c 9.41016,0 17.06641,-7.65625 17.06641,-17.06641 v -39.23047 c 0,-6.10156 -3.22656,-11.44922 -8.05469,-14.46484 0.71485,-3.6875 1.61719,-7.34375 2.71094,-10.95703 16.66016,12.11328 26.76563,31.63281 26.76563,52.46093 V 319.98437 Z M 125.07031,177.89844 h 53.32422 c 0.57813,0 1.14063,-0.0742 1.68359,-0.19922 0.0195,0.11719 0.0352,0.23047 0.0352,0.35156 v 2.54688 h -56.75781 v -2.54688 c 0,-0.11719 0.0156,-0.23437 0.0352,-0.35156 0.54297,0.125 1.10157,0.19922 1.67969,0.19922 z m -1.71484,17.69922 h 56.75781 v 4.13671 h -56.75781 z m 0,19.13671 h 56.75781 v 2.54688 c 0,1.14062 -0.92969,2.06641 -2.07031,2.06641 h -52.6211 c -1.14062,0 -2.0664,-0.92579 -2.0664,-2.06641 z m 28.3789,-87.83593 c 0.8125,0 1.60157,-0.0703 2.38672,-0.17188 v 3.48828 c 0,0.59375 -0.92968,1.45703 -2.38672,1.45703 -1.45703,0 -2.38671,-0.86328 -2.38671,-1.45703 v -3.48828 c 0.78125,0.10157 1.57421,0.17188 2.38671,0.17188 z M 149.34766,146.5 c 0.78125,0.10156 1.57421,0.17187 2.38671,0.17187 0.8125,0 1.60547,-0.0703 2.38672,-0.17187 v 14.48437 h -4.77343 z M 26.804688,157.02344 H 54.71875 c -3.953125,8.59375 -6.777344,17.72265 -8.34375,27.15625 H 15 v -15.35157 c 0,-6.51171 5.292969,-11.80468 11.804688,-11.80468 z m 0,134.33984 C 20.296875,291.36328 15,286.06641 15,279.55859 v -80.3789 h 29.984375 c -0.01563,0.75781 -0.03516,1.51953 -0.03516,2.28125 v 89.90234 z m 33.140624,-89.90234 c 0,-30.78516 15.6875,-59.64453 41.269528,-76.58985 2.67578,4.26563 5.05469,8.69532 7.12891,13.25 C 85.785156,152.77344 71.9375,178.03516 71.9375,205.08984 V 319.98437 H 59.945312 Z m 213.085938,140.8125 c 0,4.01953 -3.26953,7.28906 -7.28906,7.28906 H 37.726562 c -4.019531,0 -7.289062,-3.27344 -7.289062,-7.28906 0,-4.01953 3.269531,-7.28906 7.289062,-7.28906 H 265.74219 c 4.01953,0 7.28906,3.26953 7.28906,7.28906 z m -41.5,-22.28906 V 205.08984 c 0,-27.01953 -13.80469,-52.24609 -36.30859,-66.90625 2.07031,-4.53515 4.4375,-8.96875 7.10156,-13.26562 25.54297,16.95312 41.19922,45.78906 41.19922,76.54297 v 118.52344 z m 25.56641,-135.80469 c -1.56641,-9.4336 -4.39453,-18.56641 -8.34375,-27.15625 h 27.91015 c 6.51172,0 11.8086,5.29297 11.8086,11.80469 v 15.35156 z m 0,0"
         id="path897" />
      <path
         d="m 235.36719,38.144531 c 1.26953,2.742188 3.98047,4.355469 6.8125,4.355469 1.05468,0 2.125,-0.222656 3.14062,-0.691406 l 7.23828,-3.34375 c 3.76172,-1.738282 5.40235,-6.195313 3.66407,-9.957032 -1.73829,-3.757812 -6.19141,-5.398437 -9.95313,-3.660156 l -7.23828,3.34375 c -3.76172,1.734375 -5.39844,6.191406 -3.66406,9.953125 z m 0,0"
         id="path899" />
      <path
         d="m 226.71875,25.257812 c 1.3125,0.929688 2.82422,1.375 4.31641,1.375 2.35546,0 4.67187,-1.105468 6.13281,-3.179687 l 4.59765,-6.511719 C 244.15625,13.554688 243.34766,8.875 239.96484,6.488281 236.57812,4.097656 231.89844,4.90625 229.51172,8.292969 l -4.59766,6.515625 c -2.38672,3.382812 -1.58203,8.0625 1.80469,10.449218 z m 0,0"
         id="path901" />
      <path
         d="m 247.72266,46.292969 c -4.125,-0.390625 -7.77344,2.660156 -8.14844,6.789062 -0.375,4.125 2.66406,7.773438 6.78906,8.148438 l 7.9375,0.722656 c 0.23047,0.02344 0.46094,0.03125 0.69141,0.03125 3.83203,0 7.10547,-2.925781 7.45703,-6.820313 0.375,-4.125 -2.66406,-7.769531 -6.78906,-8.148437 z m 0,0"
         id="path903" />
      <path
         d="m 50.046875,38.964844 7.410156,2.953125 c 0.910157,0.363281 1.847657,0.535156 2.773438,0.535156 2.980469,0 5.796875,-1.789063 6.96875,-4.726563 1.535156,-3.847656 -0.34375,-8.210937 -4.191407,-9.742187 l -7.40625,-2.953125 c -3.847656,-1.535156 -8.210937,0.34375 -9.742187,4.191406 -1.535156,3.847656 0.339844,8.210938 4.1875,9.742188 z m 0,0"
         id="path905" />
      <path
         d="m 64.613281,23.15625 c 1.480469,1.875 3.675781,2.855469 5.890625,2.855469 1.628906,0 3.265625,-0.527344 4.644532,-1.613281 3.25,-2.566407 3.804687,-7.28125 1.242187,-10.53125 L 71.449219,7.605469 c -2.566407,-3.25 -7.28125,-3.808594 -10.53125,-1.242188 -3.253907,2.566407 -3.808594,7.28125 -1.246094,10.535157 z m 0,0"
         id="path907" />
      <path
         d="m 48.480469,62.597656 c 0.355469,0 0.722656,-0.02734 1.085937,-0.08203 l 7.890625,-1.144531 c 4.097657,-0.597656 6.941407,-4.402344 6.34375,-8.503906 -0.597656,-4.097657 -4.402343,-6.941407 -8.5,-6.339844 l -7.890625,1.144531 c -4.101562,0.597656 -6.941406,4.402344 -6.34375,8.503906 0.542969,3.730469 3.746094,6.421875 7.414063,6.421874 z m 0,0"
         id="path909" />
    </g>
  </g>
</svg>
