<?xml version="1.0" encoding="UTF-8" standalone="no"?>
<svg
   xmlns:dc="http://purl.org/dc/elements/1.1/"
   xmlns:cc="http://creativecommons.org/ns#"
   xmlns:rdf="http://www.w3.org/1999/02/22-rdf-syntax-ns#"
   xmlns:svg="http://www.w3.org/2000/svg"
   xmlns="http://www.w3.org/2000/svg"
   id="svg8"
   version="1.1"
   viewBox="0 0 26.322999 47.625001"
   height="180"
   width="99.488503">
  <defs
     id="defs2" />
  <metadata
     id="metadata5">
    <rdf:RDF>
      <cc:Work
         rdf:about="">
        <dc:format>image/svg+xml</dc:format>
        <dc:type
           rdf:resource="http://purl.org/dc/dcmitype/StillImage" />
        <dc:title></dc:title>
      </cc:Work>
    </rdf:RDF>
  </metadata>
  <g
     transform="translate(0,-249.375)"
     id="layer1">
    <g
       transform="matrix(0.08906657,0,0,0.09301766,-0.04453329,249.37495)"
       id="g4945">
      <path
         style="fill:#e3f4ff"
         d="m 296.04297,168.09375 v 113.44531 c 0,10.92578 -8.85547,19.78125 -19.78125,19.78125 H 20.28125 C 9.355469,301.32031 0.5,292.46484 0.5,281.53906 V 168.09375 c 0,-10.91797 8.855469,-19.77344 19.78125,-19.77344 h 255.98047 c 10.92578,0 19.78125,8.85547 19.78125,19.77344 z m 0,0"
         id="path4862" />
      <path
         style="fill:#bddff4"
         d="m 296.04297,168.09375 v 113.44141 c 0,10.92968 -8.85547,19.78515 -19.78516,19.78515 h -18.76562 c 10.92187,0 19.78515,-8.85547 19.78515,-19.78515 V 168.09375 c 0,-10.92187 -8.86328,-19.77344 -19.78515,-19.77344 h 18.76562 c 10.92969,0 19.78516,8.85157 19.78516,19.77344 z m 0,0"
         id="path4864" />
      <path
         style="fill:#618baa"
         d="m 296.04297,191.50781 v 90.02735 c 0,10.92968 -8.85547,19.78515 -19.78516,19.78515 H 20.285156 C 9.355469,301.32031 0.5,292.46484 0.5,281.53516 v -90.02735 z m 0,0"
         id="path4866" />
      <path
         style="fill:#4e7693"
         d="m 296.04297,191.50781 v 90.02735 c 0,10.92968 -8.85547,19.78515 -19.78516,19.78515 h -18.76562 c 10.92187,0 19.78515,-8.85547 19.78515,-19.78515 v -90.02735 z m 0,0"
         id="path4868" />
      <path
         style="fill:#9cc6db"
         d="M 46.550781,369.53906 V 201.53125 c 0,-56.08984 45.628907,-101.722656 101.718749,-101.722656 56.09375,0 101.72266,45.632816 101.72266,101.722656 v 168.00781 z m 0,0"
         id="path4870" />
      <path
         style="fill:#e3f4ff"
         d="M 222.33984,347.48828 H 74.203125 V 205.24609 c 0,-40.90625 33.160155,-74.07031 74.066405,-74.07031 40.91016,0 74.07031,33.16406 74.07031,74.07031 z m 0,0"
         id="path4872" />
      <path
         style="fill:#bddff4"
         d="M 222.33594,205.24609 V 347.48437 H 203.57031 V 205.24609 c 0,-20.45312 -8.28515,-38.96875 -21.6914,-52.375 -11.32032,-11.32031 -26.29297,-18.99609 -42.99219,-21.10156 3.07422,-0.39062 6.21094,-0.58984 9.38281,-0.58984 20.45313,0 38.96875,8.28515 52.375,21.6914 13.40625,13.40625 21.69141,31.92188 21.69141,52.375 z m 0,0"
         id="path4874" />
      <path
         style="fill:#84a1c0"
         d="m 187.03516,499.39844 h -77.52735 l 15.33203,-75.05078 h 46.86328 z m 0,0"
         id="path4876" />
      <path
         style="fill:#e3f4ff"
         d="m 258.80469,350.34375 c 0,61.04687 -49.48828,110.53125 -110.53516,110.53125 -61.042968,0 -110.531249,-49.48438 -110.531249,-110.53125 z m 0,0"
         id="path4878" />
      <path
         style="fill:#bddff4"
         d="m 258.80078,350.33984 c 0,61.05078 -49.48047,110.53907 -110.53125,110.53907 -3.75,0 -7.47266,-0.1875 -11.12891,-0.5586 55.8086,-5.57812 99.39063,-52.69531 99.39063,-109.98047 z m 0,0"
         id="path4880" />
      <path
         style="fill:#84a1c0"
         d="M 265.07422,360.94531 H 31.46875 c -8.367188,0 -15.152344,-6.78125 -15.152344,-15.15234 0,-8.36719 6.785156,-15.14844 15.152344,-15.14844 h 233.60547 c 8.36719,0 15.14844,6.78125 15.14844,15.14844 0,8.37109 -6.78125,15.15234 -15.14844,15.15234 z m 0,0"
         id="path4882" />
      <path
         style="fill:#e3f4ff"
         d="m 187.32422,512 h -78.10547 c -6.01953,0 -10.902344,-4.88281 -10.902344,-10.90234 0,-6.01953 4.882814,-10.89844 10.902344,-10.89844 h 78.10547 c 6.01953,0 10.89844,4.8789 10.89844,10.89844 0,6.01953 -4.87891,10.90234 -10.89844,10.90234 z m 0,0"
         id="path4884" />
      <path
         style="fill:#ffdf46"
         d="m 120.95313,169.70703 h 54.63281 c 2.66015,-22.14062 11.51562,-43.14844 25.16797,-61.07031 8.4375,-11.07422 13.44531,-24.898439 13.44531,-39.894532 0,-37.46875 -31.25391,-67.636719 -69.11328,-65.855469 -33.97656,1.601562 -61.417971,29.324219 -62.695315,63.3125 -0.609375,16.148437 4.597656,31.054687 13.683594,42.812501 13.679691,17.69531 22.277341,38.67187 24.878911,60.69531 z m 0,0"
         id="path4886" />
      <path
         style="fill:#f9b200"
         d="m 214.20312,68.742188 c 0,15 -5.01171,28.820312 -13.44921,39.898442 -13.65625,17.91796 -22.50782,38.92187 -25.16407,61.0664 h -15.68359 c 2.65625,-22.14453 11.50781,-43.14844 25.16016,-61.0664 8.4414,-11.07813 13.44921,-24.898442 13.44921,-39.898442 0,-33.757813 -25.38671,-61.609376 -58.10546,-65.46875 1.54687,-0.175782 3.10546,-0.304688 4.67578,-0.382813 37.85547,-1.785156 69.11718,28.386719 69.11718,65.851563 z m 0,0"
         id="path4888" />
      <path
         style="fill:#ff8800"
         d="m 158.39844,95.859375 c -4.24219,0 -7.6836,3.4375 -7.6836,7.683595 v 4.73437 c 0,0.60938 -0.95312,1.4961 -2.44531,1.4961 -1.49219,0 -2.44531,-0.88281 -2.44531,-1.4961 v -4.73437 c 0,-4.246095 -3.4375,-7.683595 -7.6836,-7.683595 -4.24218,0 -7.68359,3.4375 -7.68359,7.683595 v 61.7539 c 0,4.24219 3.44141,7.6836 7.68359,7.6836 4.2461,0 7.6836,-3.44141 7.6836,-7.6836 v -20.07421 c 0.80469,0.10546 1.61328,0.17578 2.44531,0.17578 0.83203,0 1.64453,-0.0703 2.44531,-0.17578 v 20.07421 c 0,4.24219 3.44141,7.6836 7.6836,7.6836 4.24609,0 7.68359,-3.44141 7.68359,-7.6836 v -61.7539 c 0,-4.246095 -3.4375,-7.683595 -7.68359,-7.683595 z m -10.12891,34.171875 c -1.49219,0 -2.44531,-0.88281 -2.44531,-1.49609 v -3.57422 c 0.80469,0.10547 1.61328,0.17969 2.44531,0.17969 0.83203,0 1.64453,-0.0742 2.44531,-0.17969 v 3.57422 c 0,0.60937 -0.95312,1.49609 -2.44531,1.49609 z m 0,0"
         id="path4890" />
      <path
         style="fill:#a7c7d3"
         d="M 175.22656,227.53906 H 121.3125 c -5.41406,0 -9.80078,-4.38672 -9.80078,-9.80078 v -40.19141 c 0,-5.41406 4.39062,-9.80078 9.80078,-9.80078 h 53.91406 c 5.41406,0 9.80469,4.39063 9.80469,9.80078 v 40.19141 c 0,5.41406 -4.39063,9.80078 -9.80469,9.80078 z m 0,0"
         id="path4892" />
      <path
         style="fill:#bddff4"
         d="m 182.08984,195.52344 h -66.65625 c -4.24609,0 -7.68359,-3.4375 -7.68359,-7.6836 0,-4.24218 3.4375,-7.68359 7.68359,-7.68359 h 66.65625 c 4.24219,0 7.6836,3.44141 7.6836,7.68359 0,4.2461 -3.44141,7.6836 -7.6836,7.6836 z m 0,0"
         id="path4894" />
      <path
         style="fill:#bddff4"
         d="m 182.08984,215.12891 h -66.65625 c -4.24609,0 -7.68359,-3.4375 -7.68359,-7.6836 0,-4.24219 3.4375,-7.68359 7.68359,-7.68359 h 66.65625 c 4.24219,0 7.6836,3.4414 7.6836,7.68359 0,4.2461 -3.44141,7.6836 -7.6836,7.6836 z m 0,0"
         id="path4896" />
      <g
         style="fill:#ffdf46"
         id="g4910">
        <path
           d="m 240.93359,38.671875 c -2.90234,0 -5.67968,-1.652344 -6.98047,-4.460937 -1.77734,-3.851563 -0.0977,-8.417969 3.75391,-10.199219 l 7.41797,-3.425781 c 3.85156,-1.78125 8.41797,-0.09766 10.19531,3.753906 1.78125,3.851562 0.10156,8.417968 -3.7539,10.199218 l -7.41407,3.425782 c -1.04297,0.480468 -2.14062,0.707031 -3.21875,0.707031 z m 0,0"
           id="path4898" />
        <path
           d="m 229.51562,22.414062 c -1.52734,0 -3.07421,-0.453124 -4.42187,-1.40625 C 221.625,18.5625 220.80078,13.769531 223.24609,10.300781 L 227.95703,3.625 c 2.44531,-3.464844 7.23828,-4.292969 10.70703,-1.847656 3.46875,2.449218 4.29297,7.242187 1.84766,10.710937 l -4.71094,6.671875 c -1.49609,2.121094 -3.87109,3.253906 -6.28516,3.253906 z m 0,0"
           id="path4900" />
        <path
           d="m 254.05859,58.636719 c -0.23437,0 -0.46875,-0.01172 -0.70703,-0.03125 l -8.13281,-0.742188 c -4.22656,-0.386719 -7.33984,-4.125 -6.95703,-8.347656 0.38672,-4.230469 4.125,-7.359375 8.35156,-6.957031 l 8.13672,0.742187 c 4.22266,0.382813 7.33984,4.121094 6.95312,8.347657 -0.36328,3.988281 -3.71484,6.988281 -7.64453,6.988281 z m 0,0"
           id="path4902" />
        <path
           d="m 54.523438,38.625 c -0.945313,0 -1.910157,-0.175781 -2.84375,-0.546875 L 44.09375,35.050781 c -3.945312,-1.570312 -5.867188,-6.039062 -4.292969,-9.980469 1.570313,-3.941406 6.039063,-5.863281 9.980469,-4.292968 l 7.589844,3.023437 C 61.3125,25.375 63.234375,29.84375 61.664062,33.785156 60.464844,36.792969 57.578125,38.625 54.523438,38.625 Z m 0,0"
           id="path4904" />
        <path
           d="m 65.050781,21.78125 c -2.273437,0 -4.519531,-1.003906 -6.039062,-2.925781 L 53.953125,12.441406 C 51.324219,9.109375 51.894531,4.28125 55.226562,1.652344 58.558594,-0.976562 63.386719,-0.40625 66.015625,2.925781 l 5.0625,6.410157 C 73.707031,12.667969 73.136719,17.5 69.804688,20.128906 68.394531,21.242188 66.71875,21.78125 65.050781,21.78125 Z m 0,0"
           id="path4906" />
        <path
           d="m 42.484375,59.261719 c -3.753906,0 -7.039063,-2.753907 -7.59375,-6.578125 -0.613281,-4.199219 2.296875,-8.101563 6.496094,-8.710938 l 8.085937,-1.175781 c 4.199219,-0.613281 8.097656,2.300781 8.707032,6.5 0.609374,4.199219 -2.296876,8.097656 -6.496094,8.707031 l -8.085938,1.175782 c -0.375,0.05469 -0.746094,0.08203 -1.113281,0.08203 z m 0,0"
           id="path4908" />
      </g>
    </g>
  </g>
</svg>
