<?xml version="1.0" encoding="UTF-8" standalone="no"?>
<svg
   xmlns:dc="http://purl.org/dc/elements/1.1/"
   xmlns:cc="http://creativecommons.org/ns#"
   xmlns:rdf="http://www.w3.org/1999/02/22-rdf-syntax-ns#"
   xmlns:svg="http://www.w3.org/2000/svg"
   xmlns="http://www.w3.org/2000/svg"
   id="svg8"
   version="1.1"
   viewBox="0 0 26.322999 47.625001"
   height="180"
   width="99.488503">
  <defs
     id="defs2" />
  <metadata
     id="metadata5">
    <rdf:RDF>
      <cc:Work
         rdf:about="">
        <dc:format>image/svg+xml</dc:format>
        <dc:type
           rdf:resource="http://purl.org/dc/dcmitype/StillImage" />
        <dc:title></dc:title>
      </cc:Work>
    </rdf:RDF>
  </metadata>
  <g
     transform="translate(0,-249.375)"
     id="layer1">
    <g
       transform="matrix(0.4528688,0,0,0.81915532,-15.821877,220.76695)"
       id="g5195">
      <ellipse
         cx="64.010002"
         cy="88.625"
         rx="14.901"
         ry="3.1570001"
         style="fill:#88e9fd"
         id="ellipse5173" />
      <polygon
         points="56.181,36.157 71.839,36.157 78.91,65.011 49.109,65.011 "
         style="fill:#88e9fd"
         id="polygon5175" />
      <rect
         x="60.727001"
         y="77.050003"
         width="6.566"
         height="10.27"
         style="fill:#ffffff"
         id="rect5177" />
      <path
         d="m 72.84,75.167 a 1.25,1.25 0 0 0 -1.25,1.25 v 0.332 a 1.25,1.25 0 1 0 2.5,0 v -0.332 a 1.25,1.25 0 0 0 -1.25,-1.25 z"
         id="path5179" />
      <path
         d="M 91.812,87.406 H 79.738 c -0.726,-0.967 -2.655,-1.989 -7.57,-2.653 a 1.250204,1.250204 0 0 0 -0.334,2.478 16.452,16.452 0 0 1 5.566,1.43 c -1.281,0.763 -5.853,1.9 -13.4,1.9 -7.547,0 -12.121,-1.14 -13.4,-1.9 0.929,-0.544 3.724,-1.405 8.866,-1.758 v 0.449 a 1.25,1.25 0 1 0 2.5,0 v -1.824 c 0,0 0,-0.008 0,-0.013 V 85.507 78.33 h 4.066 v 9.02 a 1.25,1.25 0 1 0 2.5,0 V 77.08 a 1.25,1.25 0 0 0 -1.25,-1.25 H 65.25 v -9.538 h 6.34 v 6.126 a 1.25,1.25 0 1 0 2.5,0 v -6.126 h 4.81 a 1.25,1.25 0 0 0 1.214,-1.547 L 73.043,35.89 A 1.249,1.249 0 0 0 71.829,34.937 H 60.717 a 1.25,1.25 0 0 0 0,2.5 h 10.132 l 6.458,26.355 H 50.693 L 57.384,36.485 A 1.25,1.25 0 1 0 54.956,35.89 l -7.07,28.855 a 1.25,1.25 0 0 0 1.214,1.547 h 13.65 v 9.538 h -2.033 a 1.25,1.25 0 0 0 -1.25,1.25 v 7.32 c -4.061,0.264 -9.522,1 -11.136,3.01 H 36.187 a 1.25,1.25 0 0 0 0,2.5 H 48.32 c 2.386,2.982 13.28,3.153 15.68,3.153 2.4,0 13.293,-0.171 15.68,-3.157 h 12.132 a 1.25,1.25 0 0 0 0,-2.5 z"
         id="path5181" />
    </g>
  </g>
</svg>
