<?xml version="1.0" encoding="UTF-8" standalone="no"?>
<svg
   xmlns:dc="http://purl.org/dc/elements/1.1/"
   xmlns:cc="http://creativecommons.org/ns#"
   xmlns:rdf="http://www.w3.org/1999/02/22-rdf-syntax-ns#"
   xmlns:svg="http://www.w3.org/2000/svg"
   xmlns="http://www.w3.org/2000/svg"
   id="svg8"
   version="1.1"
   viewBox="0 0 26.322999 47.625001"
   height="180"
   width="99.488503">
  <defs
     id="defs2" />
  <metadata
     id="metadata5">
    <rdf:RDF>
      <cc:Work
         rdf:about="">
        <dc:format>image/svg+xml</dc:format>
        <dc:type
           rdf:resource="http://purl.org/dc/dcmitype/StillImage" />
        <dc:title></dc:title>
      </cc:Work>
    </rdf:RDF>
  </metadata>
  <g
     transform="translate(0,-249.375)"
     id="layer1">
    <g
       transform="matrix(0.07302429,0,0,0.11012951,-2.6263574,249.38)"
       id="g5417">
      <g
         id="g5351">
	<g
   id="g5349">
		<g
   id="g5347">
			<path
   style="fill:#231f20"
   d="m 216.529,93.2 c -61.2,0 -111.2,50 -111.2,111.2 0,32 14,62.8 37.6,83.6 17.6,17.6 16,55.2 15.6,55.6 0,2 0.4,3.6 2,5.2 1.2,1.2 3.2,2 4.8,2 h 102 c 2,0 3.6,-0.8 4.8,-2 1.2,-1.2 2,-3.2 2,-5.2 0,-0.4 -2,-38 15.6,-55.6 0.4,-0.4 0.8,-0.8 1.2,-1.2 23.2,-21.2 36.8,-51.2 36.8,-82.4 0,-61.2 -50,-111.2 -111.2,-111.2 z m 64,184.4 c -0.4,0.4 -1.2,1.2 -1.2,1.6 -15.6,16.8 -18.4,44.4 -18.8,57.6 h -88.4 c -0.4,-13.2 -3.2,-42 -20,-59.2 -21.2,-18.4 -33.6,-45.2 -33.6,-73.6 0,-54 43.6,-97.6 97.6,-97.6 54,0 97.6,43.6 97.6,97.6 0,28.4 -12,55.2 -33.2,73.6 z"
   id="path5329" />

			<path
   style="fill:#231f20"
   d="m 216.129,121.6 c -3.6,0 -6.8,3.2 -6.8,6.8 0,3.6 3.2,6.8 6.8,6.8 40.4,0 72.8,32.8 72.8,72.8 0,3.6 3.2,6.8 6.8,6.8 3.6,0 6.8,-3.2 6.8,-6.8 0.4,-47.6 -38.4,-86.4 -86.4,-86.4 z"
   id="path5331" />

			<path
   style="fill:#231f20"
   d="m 260.529,358.4 h -88.8 c -9.2,0 -16.8,7.6 -16.8,16.8 0,9.2 7.6,16.8 16.8,16.8 h 88.4 c 9.6,-0.4 17.2,-7.6 17.2,-16.8 0,-9.2 -7.6,-16.8 -16.8,-16.8 z m 0,19.6 h -88.8 c -1.6,0 -3.2,-1.2 -3.2,-3.2 0,-2 1.2,-3.2 3.2,-3.2 h 88.4 c 1.6,0 3.2,1.2 3.2,3.2 0,2 -1.2,3.2 -2.8,3.2 z"
   id="path5333" />

			<path
   style="fill:#231f20"
   d="m 247.329,398.8 h -62.4 c -9.2,0 -16.8,7.6 -16.8,16.8 0,9.2 7.6,16.8 16.8,16.8 h 62.4 c 9.2,0 16.8,-7.6 16.8,-16.8 0,-9.6 -7.6,-16.8 -16.8,-16.8 z m 0,19.6 h -62.4 c -1.6,0 -3.2,-1.2 -3.2,-3.2 0,-2 1.2,-3.2 3.2,-3.2 h 62.4 c 1.6,0 3.2,1.2 3.2,3.2 0,2 -1.6,3.2 -3.2,3.2 z"
   id="path5335" />

			<path
   style="fill:#231f20"
   d="m 216.129,60 c 4,0 6.8,-3.2 6.8,-6.8 V 6.8 c 0,-3.6 -3.2,-6.8 -6.8,-6.8 -3.6,0 -6.8,3.2 -6.8,6.8 v 46.4 c 0,3.6 3.2,6.8 6.8,6.8 z"
   id="path5337" />

			<path
   style="fill:#231f20"
   d="m 329.329,34.4 c -3.2,-2.4 -7.2,-1.2 -9.2,1.6 l -25.6,38.4 c -2.4,3.2 -1.6,7.6 1.6,9.6 1.2,0.8 2.4,1.2 3.6,1.2 2.4,0 4.4,-1.2 5.6,-3.2 l 25.6,-38.4 c 2.4,-2.8 1.6,-7.2 -1.6,-9.2 z"
   id="path5339" />

			<path
   style="fill:#231f20"
   d="m 134.929,83.6 c 1.2,0 2.4,-0.4 3.6,-1.2 3.2,-2 4,-6.4 2,-9.6 L 115.729,34 c -2,-3.2 -6.4,-4 -9.6,-2 -3.2,2 -4,6.4 -2,9.6 l 24.8,38.8 c 1.6,2.4 3.6,3.2 6,3.2 z"
   id="path5341" />

			<path
   style="fill:#231f20"
   d="m 86.529,126 -40.4,-22 c -3.2,-1.6 -7.6,-0.4 -9.2,2.8 -2,3.2 -0.8,7.6 2.8,9.2 l 40.4,22 c 1.2,0.4 2,0.8 3.2,0.8 2.4,0 4.8,-1.2 6,-3.6 1.6,-3.2 0.4,-7.6 -2.8,-9.2 z"
   id="path5343" />

			<path
   style="fill:#231f20"
   d="m 395.729,106.8 c -1.6,-3.2 -6,-4.4 -9.2,-2.8 l -40.8,22 c -3.2,1.6 -4.4,6 -2.8,9.2 1.2,2.4 3.6,3.6 6,3.6 1.2,0 2.4,-0.4 3.2,-0.8 l 40.8,-22 c 3.2,-1.6 4.4,-6 2.8,-9.2 z"
   id="path5345" />

		</g>

	</g>

</g>
      <g
         id="g5353">
</g>
      <g
         id="g5355">
</g>
      <g
         id="g5357">
</g>
      <g
         id="g5359">
</g>
      <g
         id="g5361">
</g>
      <g
         id="g5363">
</g>
      <g
         id="g5365">
</g>
      <g
         id="g5367">
</g>
      <g
         id="g5369">
</g>
      <g
         id="g5371">
</g>
      <g
         id="g5373">
</g>
      <g
         id="g5375">
</g>
      <g
         id="g5377">
</g>
      <g
         id="g5379">
</g>
      <g
         id="g5381">
</g>
    </g>
  </g>
</svg>
