<?xml version="1.0" encoding="UTF-8" standalone="no"?>
<svg
   xmlns:dc="http://purl.org/dc/elements/1.1/"
   xmlns:cc="http://creativecommons.org/ns#"
   xmlns:rdf="http://www.w3.org/1999/02/22-rdf-syntax-ns#"
   xmlns:svg="http://www.w3.org/2000/svg"
   xmlns="http://www.w3.org/2000/svg"
   id="svg8"
   version="1.1"
   viewBox="0 0 26.322999 47.625001"
   height="180"
   width="99.488503">
  <defs
     id="defs2" />
  <metadata
     id="metadata5">
    <rdf:RDF>
      <cc:Work
         rdf:about="">
        <dc:format>image/svg+xml</dc:format>
        <dc:type
           rdf:resource="http://purl.org/dc/dcmitype/StillImage" />
        <dc:title></dc:title>
      </cc:Work>
    </rdf:RDF>
  </metadata>
  <g
     transform="translate(0,-249.375)"
     id="layer1">
    <g
       transform="matrix(0.20781394,0,0,0.37367929,-0.07396137,185.9687)"
       id="layer1-6">
      <g
         transform="matrix(5.7662602,0,0,6.1657095,-529.1375,-567.73298)"
         id="layer1-3">
        <path
           style="stroke-width:0.26458332"
           d="m 112.89433,136.83803 -7.42421,-3.48986 v -1.85208 l -1.53194,-1.51077 0.73819,-8.49312 a 1.8362083,1.8362083 0 1 0 -3.66977,0.0238 l 0.70908,8.44285 -1.53722,1.524 v 1.86531 l -7.442732,3.48986 a 1.8309167,1.8309167 0 0 0 0.92868,3.41312 1.8758958,1.8758958 0 0 0 0.93928,-0.26458 l 7.037912,-4.88421 0.10319,0.14288 h 2.15635 l 0.10319,-0.14552 7.05379,4.93448 a 1.8071042,1.8071042 0 0 0 0.91546,0.23547 1.8520833,1.8520833 0 0 0 0.92075,-3.43958 z m -10.07004,-16.64758 a 1.30175,1.30175 0 0 1 1.30439,1.28058 l -0.74083,8.48783 h -1.12183 l -0.74084,-8.46666 a 1.3043958,1.3043958 0 0 1 1.29911,-1.30175 z m -8.501062,19.35427 a 1.3034637,1.3034637 0 0 1 -1.32292,-2.24632 l 7.408332,-3.46075 0.84402,0.84402 z m 7.641162,-4.82336 -1.25677,-1.2991 v -1.71979 l 1.25677,-1.21444 h 1.71979 l 1.25678,1.21444 v 1.71979 l -1.25678,1.2991 z m 11.13896,4.35769 a 1.3096875,1.3096875 0 0 1 -1.75948,0.48683 l -6.95854,-4.88421 0.84402,-0.84402 7.40833,3.46075 a 1.3043958,1.3043958 0 0 1 0.46567,1.78065 z m -10.27906,-7.86606 a 1.3573125,1.3573125 0 1 0 1.35731,1.35731 1.3599583,1.3599583 0 0 0 -1.35731,-1.35731 z m 0,2.18546 a 0.82814583,0.82814583 0 1 1 0.82814,-0.82815 0.83079167,0.83079167 0 0 1 -0.82814,0.82815 z"
           id="path866" />
        <path
           transform="scale(0.26458333)"
           id="path876"
           d="m 386.56478,490.92374 c 0,-0.0997 -0.60268,-7.05738 -1.33929,-15.46142 -0.7366,-8.40404 -1.33928,-15.77987 -1.33928,-16.39073 0,-3.99407 4.78248,-6.18186 7.82345,-3.5789 0.79627,0.68157 1.42378,1.71698 1.65393,2.72903 0.0856,0.3765 -0.38738,6.57458 -1.27418,16.69643 -0.77569,8.85371 -1.41195,16.11775 -1.41392,16.1423 -0.0122,0.1519 -4.11071,0.0156 -4.11071,-0.13671 z"
           style="opacity:1;fill:#ffdd55;fill-opacity:1;stroke:#ff0000;stroke-width:0.2024747;stroke-miterlimit:4;stroke-dasharray:none;stroke-opacity:1;paint-order:markers stroke fill" />
        <path
           transform="scale(0.26458333)"
           id="path878"
           d="m 387.3525,490.97575 -0.73013,-0.067 -0.2974,-3.42864 c -2.37002,-27.32339 -2.45587,-28.4514 -2.2389,-29.41704 0.47988,-2.13578 2.30393,-3.55328 4.58266,-3.56125 0.61699,-0.002 1.39562,0.11049 1.73029,0.25032 0.94695,0.39566 2.15542,1.62222 2.5872,2.62591 0.3768,0.87589 0.38354,0.99923 0.19254,3.52269 -0.30895,4.08165 -1.20954,14.78303 -1.88819,22.43645 -0.33964,3.83035 -0.61779,7.14509 -0.61809,7.36607 -5.4e-4,0.38254 -0.0626,0.40029 -1.2952,0.37059 -0.71205,-0.0172 -1.6232,-0.0613 -2.02478,-0.0981 z"
           style="opacity:1;fill:#d4aa00;fill-opacity:1;stroke:#ff0000;stroke-width:0.2024747;stroke-miterlimit:4;stroke-dasharray:none;stroke-opacity:1;paint-order:markers stroke fill" />
        <path
           transform="scale(0.26458333)"
           id="path880"
           d="m 422.18978,527.90269 c -0.29464,-0.0809 -0.70365,-0.21712 -0.90891,-0.3027 -0.50521,-0.21066 -26.5018,-18.47637 -26.5018,-18.62069 0,-0.0628 0.66294,-0.77202 1.47321,-1.57598 l 1.47321,-1.46175 13.48215,6.30123 c 7.41518,3.46568 13.81387,6.47233 14.21932,6.68144 0.9974,0.51442 2.11255,1.82267 2.38593,2.79911 0.84353,3.01277 -1.11236,5.9202 -4.19454,6.23519 -0.49107,0.0502 -1.13393,0.0251 -1.42857,-0.0558 z"
           style="opacity:1;fill:#d4aa00;fill-opacity:1;stroke:#ff0000;stroke-width:0.2024747;stroke-miterlimit:4;stroke-dasharray:none;stroke-opacity:1;paint-order:markers stroke fill" />
        <path
           transform="scale(0.26458333)"
           id="path882"
           d="m 352.7777,527.81899 c -1.49621,-0.40273 -2.80829,-1.58711 -3.3458,-3.02016 -0.30977,-0.82589 -0.22344,-2.79603 0.15948,-3.63947 0.71673,-1.57872 0.81124,-1.63034 15.81258,-8.63683 l 14.10704,-6.58879 1.47332,1.46566 c 0.81032,0.80612 1.47332,1.51616 1.47332,1.57787 0,0.0983 -4.17991,3.05198 -22.02661,15.5646 -5.07522,3.55832 -5.6671,3.81176 -7.65333,3.27712 z"
           style="opacity:1;fill:#d4aa00;fill-opacity:1;stroke:#ff0000;stroke-width:0.2024747;stroke-miterlimit:4;stroke-dasharray:none;stroke-opacity:1;paint-order:markers stroke fill" />
        <path
           transform="scale(0.26458333)"
           id="path884"
           d="m 387.77752,503.96431 c -1.33092,-0.4012 -2.1056,-1.50263 -2.1056,-2.99372 0,-1.61005 1.28725,-2.90121 2.89242,-2.90121 1.02648,0 1.70868,0.3116 2.34947,1.07313 1.03939,1.23524 0.97533,2.87632 -0.15646,4.0081 -0.8445,0.84451 -1.91127,1.13581 -2.97983,0.8137 z"
           style="opacity:1;fill:#2b2200;fill-opacity:1;stroke:#ff0000;stroke-width:0.2024747;stroke-miterlimit:4;stroke-dasharray:none;stroke-opacity:1;paint-order:markers stroke fill" />
      </g>
    </g>
  </g>
</svg>
