<?xml version="1.0" encoding="UTF-8" standalone="no"?>
<svg
   xmlns:dc="http://purl.org/dc/elements/1.1/"
   xmlns:cc="http://creativecommons.org/ns#"
   xmlns:rdf="http://www.w3.org/1999/02/22-rdf-syntax-ns#"
   xmlns:svg="http://www.w3.org/2000/svg"
   xmlns="http://www.w3.org/2000/svg"
   id="svg8"
   version="1.1"
   viewBox="0 0 26.322999 47.625001"
   height="180"
   width="99.488503">
  <defs
     id="defs2" />
  <metadata
     id="metadata5">
    <rdf:RDF>
      <cc:Work
         rdf:about="">
        <dc:format>image/svg+xml</dc:format>
        <dc:type
           rdf:resource="http://purl.org/dc/dcmitype/StillImage" />
        <dc:title></dc:title>
      </cc:Work>
    </rdf:RDF>
  </metadata>
  <g
     transform="translate(0,-249.375)"
     id="layer1">
    <g
       transform="matrix(0.20625152,0,0,0.37419498,0.00455584,185.74478)"
       id="layer1-3">
      <path
         style="stroke-width:1.58231366"
         d="M 122.36882,276.19097 79.239575,254.70544 v -11.4025 l -8.899416,-9.30116 4.288333,-52.28849 a 10.667029,11.304744 0 1 0 -21.318689,0.14635 l 4.119256,51.97906 -8.930178,9.38259 v 11.48394 l -43.2368165,21.4855 a 10.636288,11.272166 0 0 0 5.3949935,21.01317 10.897584,11.549083 0 0 0 5.456479,-1.62897 l 40.885155,-30.06991 0.599446,0.8796 h 12.52684 l 0.599441,-0.89593 40.977351,30.37949 a 10.497954,11.125563 0 0 0 5.31815,1.44975 10.75925,11.40248 0 0 0 5.3489,-21.17609 z m -58.499577,-102.492 a 7.5622161,8.0143143 0 0 1 7.577581,7.88397 l -4.303699,52.256 h -6.517027 l -4.303704,-52.12565 a 7.5775863,8.0306033 0 0 1 7.546849,-8.01432 z M 14.48428,292.85486 A 7.5721492,8.0248413 0 0 1 6.7990987,279.02531 l 43.0370063,-21.30634 4.903146,5.19627 z m 44.389597,-29.69529 -7.300923,-7.99804 v -10.58802 l 7.300923,-7.47676 h 9.990728 l 7.300921,7.47676 v 10.58802 l -7.300921,7.99804 z m 64.709183,26.82837 a 7.6083273,8.063182 0 0 1 -10.22128,2.99727 l -40.42403,-30.06997 4.903146,-5.19627 43.037024,21.30634 a 7.5775863,8.0306033 0 0 1 2.70514,10.96263 z M 63.869243,241.55999 a 7.8849938,8.3563887 0 1 0 7.88499,8.3564 7.900364,8.3726775 0 0 0 -7.88499,-8.3564 z m 0,13.45494 a 4.8109222,5.0985373 0 1 1 4.810917,-5.09854 4.8262923,5.1148266 0 0 1 -4.810917,5.09854 z"
         id="path1474" />
    </g>
  </g>
</svg>
