<?xml version="1.0" encoding="UTF-8" standalone="no"?>
<svg
   xmlns:dc="http://purl.org/dc/elements/1.1/"
   xmlns:cc="http://creativecommons.org/ns#"
   xmlns:rdf="http://www.w3.org/1999/02/22-rdf-syntax-ns#"
   xmlns:svg="http://www.w3.org/2000/svg"
   xmlns="http://www.w3.org/2000/svg"
   id="svg8"
   version="1.1"
   viewBox="0 0 26.322999 47.625001"
   height="180"
   width="99.488503">
  <defs
     id="defs2" />
  <metadata
     id="metadata5">
    <rdf:RDF>
      <cc:Work
         rdf:about="">
        <dc:format>image/svg+xml</dc:format>
        <dc:type
           rdf:resource="http://purl.org/dc/dcmitype/StillImage" />
        <dc:title></dc:title>
      </cc:Work>
    </rdf:RDF>
  </metadata>
  <g
     transform="translate(0,-249.375)"
     id="layer1">
    <g
       transform="matrix(0.0861198,0,0,0.09301758,-8.8856689,249.375)"
       id="g6261">
      <g
         id="g6259">
        <path
           d="m 343.178,371.386 c 0,-4.142 -3.358,-7.5 -7.5,-7.5 -6.932,0 -207.919,0 -215,0 -1.378,0 -2.5,-1.122 -2.5,-2.5 v -42.515 c 0,-27.4 8.019,-53.867 23.189,-76.54 2.303,-3.443 1.38,-8.101 -2.063,-10.404 -3.442,-2.302 -8.101,-1.38 -10.404,2.063 -16.828,25.15 -25.722,54.501 -25.722,84.881 v 42.515 c 0,9.649 7.851,17.5 17.5,17.5 h 75.012 c 6.1,28.069 30.926,48.489 60.31,48.489 29.384,0 54.21,-20.42 60.31,-48.489 h 19.368 c 4.142,0 7.5,-3.358 7.5,-7.5 z M 256,412.375 c -21.112,0 -39.125,-13.914 -44.854,-33.489 h 89.707 c -5.728,19.575 -23.741,33.489 -44.853,33.489 z"
           id="path6249" />
        <path
           d="m 358.784,205.777 c -10e-4,-10e-4 -0.003,-0.003 -0.005,-0.004 -17.206,-15.644 -37.522,-26.987 -59.41,-33.454 v -19.631 c 0,-14.291 -11.626,-25.917 -25.917,-25.917 H 263.5 V 7.5 C 263.5,3.358 260.142,0 256,0 c -4.142,0 -7.5,3.358 -7.5,7.5 v 119.271 h -9.952 c -14.291,0 -25.917,11.626 -25.917,25.917 v 19.627 c -22.064,6.518 -42.524,17.991 -59.823,33.835 -3.054,2.798 -3.263,7.542 -0.465,10.597 2.798,3.054 7.542,3.263 10.597,0.465 52.604,-48.182 133.182,-48.123 185.732,-0.354 0.005,0.005 0.01,0.009 0.016,0.014 28.683,26.081 45.134,63.259 45.134,102 v 42.515 c 0,1.378 -1.122,2.5 -2.5,2.5 h -20.644 c -4.142,0 -7.5,3.358 -7.5,7.5 0,4.142 3.358,7.5 7.5,7.5 h 20.644 c 9.649,0 17.5,-7.851 17.5,-17.5 v -42.515 c 0,-42.956 -18.239,-84.178 -50.038,-113.095 z m -74.415,-37.092 c -17.993,-3.378 -37.326,-3.645 -56.738,0 v -15.997 c 0,-6.02 4.897,-10.917 10.917,-10.917 h 34.904 c 6.02,0 10.917,4.897 10.917,10.917 z"
           id="path6251" />
        <path
           d="m 256,451.955 c -4.142,0 -7.5,3.358 -7.5,7.5 V 504.5 c 0,4.142 3.358,7.5 7.5,7.5 4.142,0 7.5,-3.358 7.5,-7.5 v -45.045 c 0,-4.142 -3.358,-7.5 -7.5,-7.5 z"
           id="path6253" />
        <path
           d="m 342.177,424.267 c -2.927,-2.931 -7.676,-2.932 -10.607,-0.005 -2.93,2.928 -2.933,7.676 -0.005,10.607 l 31.82,31.852 c 2.925,2.928 7.674,2.935 10.607,0.005 2.93,-2.928 2.933,-7.676 0.005,-10.607 z"
           id="path6255" />
        <path
           d="m 169.823,424.267 -31.82,31.852 c -2.927,2.931 -2.925,7.679 0.005,10.607 2.93,2.926 7.677,2.926 10.607,-0.005 l 31.82,-31.852 c 2.927,-2.931 2.925,-7.679 -0.005,-10.607 -2.93,-2.927 -7.679,-2.926 -10.607,0.005 z"
           id="path6257" />
      </g>
    </g>
  </g>
</svg>
