<?xml version="1.0" encoding="UTF-8" standalone="no"?>
<!-- Created with Inkscape (http://www.inkscape.org/) -->

<svg
   xmlns:dc="http://purl.org/dc/elements/1.1/"
   xmlns:cc="http://creativecommons.org/ns#"
   xmlns:rdf="http://www.w3.org/1999/02/22-rdf-syntax-ns#"
   xmlns:svg="http://www.w3.org/2000/svg"
   xmlns="http://www.w3.org/2000/svg"
   xmlns:sodipodi="http://sodipodi.sourceforge.net/DTD/sodipodi-0.dtd"
   xmlns:inkscape="http://www.inkscape.org/namespaces/inkscape"
   width="99.488503"
   height="180"
   viewBox="0 0 26.322999 47.625001"
   version="1.1"
   id="svg8"
   inkscape:version="0.92.3 (2405546, 2018-03-11)"
   sodipodi:docname="FocusLightsOFF.svg">
  <defs
     id="defs2" />
  <sodipodi:namedview
     id="base"
     pagecolor="#ffffff"
     bordercolor="#666666"
     borderopacity="1.0"
     inkscape:pageopacity="0.0"
     inkscape:pageshadow="2"
     inkscape:zoom="2.8"
     inkscape:cx="49.615363"
     inkscape:cy="189.75036"
     inkscape:document-units="mm"
     inkscape:current-layer="layer1"
     showgrid="false"
     units="px"
     fit-margin-top="0"
     fit-margin-left="0"
     fit-margin-right="0"
     fit-margin-bottom="0"
     inkscape:pagecheckerboard="false"
     inkscape:window-width="1920"
     inkscape:window-height="1042"
     inkscape:window-x="0"
     inkscape:window-y="18"
     inkscape:window-maximized="0" />
  <metadata
     id="metadata5">
    <rdf:RDF>
      <cc:Work
         rdf:about="">
        <dc:format>image/svg+xml</dc:format>
        <dc:type
           rdf:resource="http://purl.org/dc/dcmitype/StillImage" />
        <dc:title></dc:title>
      </cc:Work>
    </rdf:RDF>
  </metadata>
  <g
     inkscape:label="Layer 1"
     inkscape:groupmode="layer"
     id="layer1"
     transform="translate(0,-249.375)">
    <g
       transform="translate(0,-3.1278301e-6)"
       id="layer1-6"
       inkscape:label="Layer 1">
      <g
         transform="matrix(0.05141014,0,0,0.11788337,1.6176334e-5,243.0093)"
         id="g6778">
        <g
           id="g6694">
          <g
             id="g6692">
            <path
               inkscape:connector-curvature="0"
               d="M 263.07,56.93 C 261.21,55.07 258.63,54 256,54 c -2.63,0 -5.21,1.07 -7.07,2.93 -1.86,1.86 -2.93,4.44 -2.93,7.07 0,2.63 1.07,5.21 2.93,7.07 1.86,1.86 4.44,2.93 7.07,2.93 2.63,0 5.21,-1.07 7.07,-2.93 1.86,-1.86 2.93,-4.44 2.93,-7.07 0,-2.63 -1.07,-5.21 -2.93,-7.07 z"
               id="path6690" />
          </g>
        </g>
        <g
           id="g6700">
          <g
             id="g6698">
            <path
               inkscape:connector-curvature="0"
               d="m 455.643,134.449 54,-64 c 2.509,-2.974 3.065,-7.134 1.426,-10.663 C 509.429,56.257 505.891,54 502,54 H 295 c -5.523,0 -10,4.477 -10,10 0,5.523 4.477,10 10,10 h 185.479 l -37.125,44 H 68.647 L 31.522,74 H 210 c 5.523,0 10,-4.477 10,-10 0,-5.523 -4.477,-10 -10,-10 H 10 c -3.891,0 -7.429,2.257 -9.069,5.786 -1.64,3.529 -1.083,7.688 1.426,10.663 l 54,64 C 58.257,136.701 61.054,138 64,138 v 121 c 0,5.523 4.477,10 10,10 5.523,0 10,-4.477 10,-10 V 138 h 162 v 83.064 l -56.863,41.313 c -3.505,2.546 -4.971,7.06 -3.633,11.181 l 23.294,71.692 c 1.339,4.12 5.178,6.91 9.511,6.91 h 75.382 c 4.333,0 8.172,-2.79 9.511,-6.91 l 23.294,-71.692 c 1.338,-4.121 -0.128,-8.634 -3.633,-11.181 L 266,221.064 V 138 h 162 v 188.905 l -56.863,41.313 c -3.505,2.546 -4.971,7.06 -3.633,11.181 l 23.294,71.692 c 1.339,4.12 5.178,6.91 9.511,6.91 h 75.382 c 4.333,0 8.172,-2.79 9.511,-6.91 l 23.294,-71.692 c 1.338,-4.121 -0.128,-8.634 -3.633,-11.181 L 448,326.905 V 138 c 2.946,0 5.743,-1.299 7.643,-3.551 z M 305.229,274.288 286.425,332.16 H 225.574 L 206.77,274.288 256,238.521 Z m 182,105.84 L 468.425,438 H 407.574 L 388.77,380.128 438,344.361 Z"
               id="path6696" />
          </g>
        </g>
        <g
           id="g6706">
          <g
             id="g6704">
            <path
               inkscape:connector-curvature="0"
               d="M 140.863,368.218 79.878,323.91 c -3.505,-2.546 -8.251,-2.546 -11.756,0 L 7.137,368.218 c -3.505,2.546 -4.971,7.06 -3.633,11.181 l 23.294,71.692 c 1.339,4.12 5.178,6.91 9.511,6.91 h 75.382 c 4.333,0 8.172,-2.79 9.511,-6.91 l 23.294,-71.692 c 1.338,-4.121 -0.128,-8.635 -3.633,-11.181 z M 104.425,438 H 43.575 L 24.771,380.128 74,344.361 l 49.229,35.767 z"
               id="path6702" />
          </g>
        </g>
        <g
           id="g6712">
          <g
             id="g6710">
            <path
               inkscape:connector-curvature="0"
               d="m 81.07,285.64 c -1.86,-1.86 -4.44,-2.93 -7.07,-2.93 -2.63,0 -5.21,1.07 -7.07,2.93 -1.86,1.86 -2.93,4.44 -2.93,7.07 0,2.63 1.07,5.21 2.93,7.07 1.86,1.86 4.44,2.93 7.07,2.93 2.63,0 5.21,-1.07 7.07,-2.93 1.86,-1.86 2.93,-4.44 2.93,-7.07 0,-2.63 -1.07,-5.21 -2.93,-7.07 z"
               id="path6708" />
          </g>
        </g>
        <g
           id="g6714" />
        <g
           id="g6716" />
        <g
           id="g6718" />
        <g
           id="g6720" />
        <g
           id="g6722" />
        <g
           id="g6724" />
        <g
           id="g6726" />
        <g
           id="g6728" />
        <g
           id="g6730" />
        <g
           id="g6732" />
        <g
           id="g6734" />
        <g
           id="g6736" />
        <g
           id="g6738" />
        <g
           id="g6740" />
        <g
           id="g6742" />
      </g>
    </g>
  </g>
</svg>
