<?xml version="1.0" encoding="UTF-8" standalone="no"?>
<!-- Created with Inkscape (http://www.inkscape.org/) -->

<svg
   xmlns:dc="http://purl.org/dc/elements/1.1/"
   xmlns:cc="http://creativecommons.org/ns#"
   xmlns:rdf="http://www.w3.org/1999/02/22-rdf-syntax-ns#"
   xmlns:svg="http://www.w3.org/2000/svg"
   xmlns="http://www.w3.org/2000/svg"
   xmlns:sodipodi="http://sodipodi.sourceforge.net/DTD/sodipodi-0.dtd"
   xmlns:inkscape="http://www.inkscape.org/namespaces/inkscape"
   width="99.488503"
   height="180"
   viewBox="0 0 26.322999 47.625001"
   version="1.1"
   id="svg8"
   inkscape:version="0.92.3 (2405546, 2018-03-11)"
   sodipodi:docname="LedStripOFF.svg">
  <defs
     id="defs2" />
  <sodipodi:namedview
     id="base"
     pagecolor="#ffffff"
     bordercolor="#666666"
     borderopacity="1.0"
     inkscape:pageopacity="0.0"
     inkscape:pageshadow="2"
     inkscape:zoom="2.8"
     inkscape:cx="49.615363"
     inkscape:cy="189.75036"
     inkscape:document-units="mm"
     inkscape:current-layer="layer1"
     showgrid="false"
     units="px"
     fit-margin-top="0"
     fit-margin-left="0"
     fit-margin-right="0"
     fit-margin-bottom="0"
     inkscape:pagecheckerboard="false"
     inkscape:window-width="1920"
     inkscape:window-height="1042"
     inkscape:window-x="0"
     inkscape:window-y="18"
     inkscape:window-maximized="0" />
  <metadata
     id="metadata5">
    <rdf:RDF>
      <cc:Work
         rdf:about="">
        <dc:format>image/svg+xml</dc:format>
        <dc:type
           rdf:resource="http://purl.org/dc/dcmitype/StillImage" />
        <dc:title></dc:title>
      </cc:Work>
    </rdf:RDF>
  </metadata>
  <g
     inkscape:label="Layer 1"
     inkscape:groupmode="layer"
     id="layer1"
     transform="translate(0,-249.375)">
    <g
       id="outline"
       transform="matrix(0.47003571,0,0,0.79375,-1.8801429,247.7875)">
      <path
         id="path9559"
         d="m 16,18 a 3,3 0 1 0 -3,-3 3,3 0 0 0 3,3 z m 0,-4 a 1,1 0 1 1 -1,1 1,1 0 0 1 1,-1 z"
         inkscape:connector-curvature="0" />
      <path
         id="path9561"
         d="m 16,26 a 3,3 0 1 0 -3,-3 3,3 0 0 0 3,3 z m 0,-4 a 1,1 0 1 1 -1,1 1,1 0 0 1 1,-1 z"
         inkscape:connector-curvature="0" />
      <path
         id="path9563"
         d="m 16,42 a 3,3 0 1 0 -3,-3 3,3 0 0 0 3,3 z m 0,-4 a 1,1 0 1 1 -1,1 1,1 0 0 1 1,-1 z"
         inkscape:connector-curvature="0" />
      <path
         id="path9565"
         d="m 16,50 a 3,3 0 1 0 -3,-3 3,3 0 0 0 3,3 z m 0,-4 a 1,1 0 1 1 -1,1 1,1 0 0 1 1,-1 z"
         inkscape:connector-curvature="0" />
      <path
         id="path9567"
         d="m 16,58 a 3,3 0 1 0 -3,-3 3,3 0 0 0 3,3 z m 0,-4 a 1,1 0 1 1 -1,1 1,1 0 0 1 1,-1 z"
         inkscape:connector-curvature="0" />
      <path
         id="path9569"
         d="m 16,34 a 3,3 0 1 0 -3,-3 3,3 0 0 0 3,3 z m 0,-4 a 1,1 0 1 1 -1,1 1,1 0 0 1 1,-1 z"
         inkscape:connector-curvature="0" />
      <path
         id="path9571"
         d="m 12,62 h 8 a 1,1 0 0 0 1,-1 V 12 h 6 v 41 a 1,1 0 0 0 0.293,0.707 l 8,8 A 1,1 0 0 0 36,62 h 8 a 1,1 0 0 0 0.707,-0.293 l 8,-8 A 1,1 0 0 0 53,53 V 3 A 1,1 0 0 0 52,2 H 44 A 1,1 0 0 0 43,3 V 52 H 37 V 3 A 1,1 0 0 0 36,2 H 20 a 1,1 0 0 0 -0.707,0.293 l -8,8 A 1,1 0 0 0 11,11 v 50 a 1,1 0 0 0 1,1 z M 45,49 V 4 h 6 v 48.586 l -6,6 z m -8,5 h 6 v 6 H 37 Z M 29,49 V 4 h 6 v 54.586 l -6,-6 z M 21,4 h 6 v 6 H 21 Z M 13,55 V 11.414 l 6,-6 V 60 h -6 z"
         inkscape:connector-curvature="0" />
      <path
         id="path9573"
         d="m 48,52 a 3,3 0 1 0 -3,-3 3,3 0 0 0 3,3 z m 0,-4 a 1,1 0 1 1 -1,1 1,1 0 0 1 1,-1 z"
         inkscape:connector-curvature="0" />
      <path
         id="path9575"
         d="m 48,44 a 3,3 0 1 0 -3,-3 3,3 0 0 0 3,3 z m 0,-4 a 1,1 0 1 1 -1,1 1,1 0 0 1 1,-1 z"
         inkscape:connector-curvature="0" />
      <path
         id="path9577"
         d="m 48,28 a 3,3 0 1 0 -3,-3 3,3 0 0 0 3,3 z m 0,-4 a 1,1 0 1 1 -1,1 1,1 0 0 1 1,-1 z"
         inkscape:connector-curvature="0" />
      <path
         id="path9579"
         d="m 48,20 a 3,3 0 1 0 -3,-3 3,3 0 0 0 3,3 z m 0,-4 a 1,1 0 1 1 -1,1 1,1 0 0 1 1,-1 z"
         inkscape:connector-curvature="0" />
      <path
         id="path9581"
         d="m 48,12 a 3,3 0 1 0 -3,-3 3,3 0 0 0 3,3 z m 0,-4 a 1,1 0 1 1 -1,1 1,1 0 0 1 1,-1 z"
         inkscape:connector-curvature="0" />
      <path
         id="path9583"
         d="m 48,36 a 3,3 0 1 0 -3,-3 3,3 0 0 0 3,3 z m 0,-4 a 1,1 0 1 1 -1,1 1,1 0 0 1 1,-1 z"
         inkscape:connector-curvature="0" />
      <path
         id="path9585"
         d="m 32,52 a 3,3 0 1 0 -3,-3 3,3 0 0 0 3,3 z m 0,-4 a 1,1 0 1 1 -1,1 1,1 0 0 1 1,-1 z"
         inkscape:connector-curvature="0" />
      <path
         id="path9587"
         d="m 32,44 a 3,3 0 1 0 -3,-3 3,3 0 0 0 3,3 z m 0,-4 a 1,1 0 1 1 -1,1 1,1 0 0 1 1,-1 z"
         inkscape:connector-curvature="0" />
      <path
         id="path9589"
         d="m 32,28 a 3,3 0 1 0 -3,-3 3,3 0 0 0 3,3 z m 0,-4 a 1,1 0 1 1 -1,1 1,1 0 0 1 1,-1 z"
         inkscape:connector-curvature="0" />
      <path
         id="path9591"
         d="m 32,20 a 3,3 0 1 0 -3,-3 3,3 0 0 0 3,3 z m 0,-4 a 1,1 0 1 1 -1,1 1,1 0 0 1 1,-1 z"
         inkscape:connector-curvature="0" />
      <path
         id="path9593"
         d="m 32,12 a 3,3 0 1 0 -3,-3 3,3 0 0 0 3,3 z m 0,-4 a 1,1 0 1 1 -1,1 1,1 0 0 1 1,-1 z"
         inkscape:connector-curvature="0" />
      <path
         id="path9595"
         d="m 32,36 a 3,3 0 1 0 -3,-3 3,3 0 0 0 3,3 z m 0,-4 a 1,1 0 1 1 -1,1 1,1 0 0 1 1,-1 z"
         inkscape:connector-curvature="0" />
      <path
         id="path9597"
         d="m 23,6 h 2 v 2 h -2 z"
         inkscape:connector-curvature="0" />
      <path
         id="path9599"
         d="m 39,56 h 2 v 2 h -2 z"
         inkscape:connector-curvature="0" />
      <path
         id="path9601"
         d="m 4,31 h 5 v 2 H 4 Z"
         inkscape:connector-curvature="0" />
      <path
         id="path9603"
         transform="rotate(-53.130102,7,27.5)"
         d="m 6,25 h 2 v 5 H 6 Z"
         inkscape:connector-curvature="0" />
      <path
         id="path9605"
         transform="rotate(-36.869898,7.005,36.51)"
         d="m 4.5,35.5 h 5 v 2 h -5 z"
         inkscape:connector-curvature="0" />
      <path
         id="path9607"
         d="m 55,31 h 5 v 2 h -5 z"
         inkscape:connector-curvature="0" />
      <path
         id="path9609"
         transform="rotate(-36.869898,57.019,27.503)"
         d="m 54.5,26.5 h 5 v 2 h -5 z"
         inkscape:connector-curvature="0" />
      <path
         id="path9611"
         transform="rotate(-53.130102,57,36.5)"
         d="m 56,34 h 2 v 5 h -2 z"
         inkscape:connector-curvature="0" />
    </g>
  </g>
</svg>
